<?xml version="1.0" encoding="UTF-8"?>
<svg width="300" height="300" viewBox="0 0 300 300" xmlns="http://www.w3.org/2000/svg">
  <g fill="#FFFFFF">
    <path d="M147.5,146.5 L119,220 L75,220 L125,100 L147.5,146.5 Z M147.5,146.5 L170,100 L195,100 L160,170 L147.5,146.5 Z"/>
    <path d="M220,150 C220,171.5 202.5,189 181,189 C159.5,189 142,171.5 142,150 C142,128.5 159.5,111 181,111 C202.5,111 220,128.5 220,150 Z M181,130 C169.5,130 161,139 161,150 C161,161 169.5,170 181,170 C192.5,170 201,161 201,150 C201,139 192.5,130 181,130 Z"/>
    <path d="M181,130 L181,111 L201,130 L181,130 Z"/>
    <path d="M201,150 L220,150 L201,170 L201,150 Z"/>
    <path d="M181,170 L181,189 L161,170 L181,170 Z"/>
    <path d="M161,150 L142,150 L161,130 L161,150 Z"/>
  </g>
</svg>
